<svg id="Layer_1" data-name="Layer 1" xmlns="http://www.w3.org/2000/svg" viewBox="0 0 295.21 242.26"><defs><style>.cls-1{fill:#fff;}.cls-2{fill:none;stroke:#000;stroke-width:8px;}.cls-2,.cls-3{stroke-miterlimit:10;}.cls-3{stroke:#231f20;stroke-linecap:round;fill-rule:evenodd;}.cls-4{font-size:29.24px;}.cls-10,.cls-4,.cls-5,.cls-6,.cls-7,.cls-8,.cls-9{font-family:MyriadPro-Regular, Myriad Pro;}.cls-5{font-size:39.71px;}.cls-6{font-size:25.97px;}.cls-7{font-size:26.93px;}.cls-8{font-size:28.14px;}.cls-9{font-size:29.27px;}.cls-10{font-size:31.15px;}.cls-11{letter-spacing:-0.01em;}.cls-12{letter-spacing:-0.01em;}.cls-13{letter-spacing:0em;}</style></defs><rect class="cls-1" x="4.37" y="64.76" width="44" height="132"/><path d="M242,418V545H203V418h39m5-5H198V550h49V413Z" transform="translate(-196.13 -350.74)"/><rect class="cls-1" x="53.37" y="79.76" width="45" height="117"/><path d="M292,433V545H252V433h40m5-5H247V550h50V428Z" transform="translate(-196.13 -350.74)"/><rect class="cls-1" x="103.37" y="93.76" width="39" height="103"/><path d="M336,447v98H302V447h34m5-5H297V550h44V442Z" transform="translate(-196.13 -350.74)"/><rect class="cls-1" x="147.37" y="109.76" width="37" height="87"/><path d="M378,463v82H346V463h32m5-5H341v92h42V458Z" transform="translate(-196.13 -350.74)"/><rect class="cls-1" x="189.37" y="122.76" width="32" height="74"/><path d="M415,476v69H388V476h27m5-5H383v79h37V471Z" transform="translate(-196.13 -350.74)"/><rect class="cls-1" x="226.37" y="133.76" width="31" height="63"/><path d="M451,487v58H425V487h26m5-5H420v68h36V482Z" transform="translate(-196.13 -350.74)"/><line class="cls-2" x1="1.37" y1="3.76" x2="259.37" y2="97.76"/><polygon class="cls-3" points="227.68 119.15 294.32 114.83 257.26 59.28 227.68 119.15"/><text class="cls-4" transform="translate(32.79 187.8) rotate(-90) scale(1.27 1)">H1</text><text class="cls-5" transform="translate(87.83 187.4) rotate(-90)">H2</text><text class="cls-6" transform="translate(130.84 187.04) rotate(-90)">H3</text><text class="cls-7" transform="translate(173.86 187.53) rotate(-90)">H4</text><text class="cls-8" transform="translate(214.43 191.49) rotate(-90) scale(1.27 1)">H5</text><text class="cls-9" transform="translate(251.14 191.17) rotate(-90)">H6</text><text class="cls-10" transform="translate(2.05 234.47) scale(0.63 1)">La<tspan class="cls-11" x="29.72" y="0">r</tspan><tspan x="39.65" y="0">ge heading </tspan><tspan class="cls-12" x="193.34" y="0">t</tspan><tspan class="cls-13" x="203.47" y="0">o small heading</tspan></text></svg>
